# xmcd
#
# Track frame offsets:
#	150
#	12141
#	22150
#	47052
#	65540
#	82326
#	98516
#	121387
#	135584
#	144979
#	157556
#	166566
#	181938
#	202821
#
# Disc length: 2919 seconds
#
# Revision: 1
# Processed by: cddbd v1.5.1PL2 Copyright (c) Steve Scherf et al.
# Submitted via: audiograbber 1.83.01
#
DISCID=a70b650e
DTITLE=The Vandals - The Vandals (live)
DYEAR=2006
DGENRE=Country
TTITLE0=cotton fields
TTITLE1=that's allright now mama
TTITLE2=harvest moon
TTITLE3=you're my sunshine
TTITLE4=revolution
TTITLE5=I'll fly away
TTITLE6=midnight special
TTITLE7=lonesome whistle
TTITLE8=I'll walk the line
TTITLE9=bad moon rising
TTITLE10=day and night
TTITLE11=you're the one
TTITLE12=I shall be released
TTITLE13=hard rain's a gonna fall
EXTD=June '06 Live in the streets of Korcula - Croatia
EXTT0=
EXTT1=
EXTT2=
EXTT3=
EXTT4=
EXTT5=
EXTT6=
EXTT7=
EXTT8=
EXTT9=
EXTT10=
EXTT11=
EXTT12=
EXTT13=
PLAYORDER=
